# xmcd
#
# Track frame offsets:
#	150
#	16050
#	36847
#	59947
#	78172
#	95872
#	113947
#	130897
#	147172
#	163072
#	183719
#	206819
#	225044
#	242744
#	260819
#	277769
#
# Disc length: 3920 seconds
#
# Revision: 1
# Processed by: cddbd v1.5.2PL0 Copyright (c) Steve Scherf et al.
# Submitted via: audiograbber 1.83.01
#
DISCID=e50f4e10
DTITLE=Various Artist - AMS-1067 MALE R&B SuperHits
DYEAR=1900
DGENRE=Karaoke
TTITLE0=Brian McKnight - Back At Once
TTITLE1=R. Kelly - The World's Greatest
TTITLE2=Joe - I Wanna Know
TTITLE3=Dru Hill - These Are The Times
TTITLE4=Voices Of Theory - Say It
TTITLE5=Sisqo - Incomplete
TTITLE6=K-Ci and JoJo - Crazy
TTITLE7=K-Ci and JoJo - Tell Me It's Real
TTITLE8=Brian McKnight - Back At Once (Vocal)
TTITLE9=R. Kelly - The World's Greatest (Vocal)
TTITLE10=Joe - I Wanna Know (Vocal)
TTITLE11=Dru Hill - These Are The Times (Vocal)
TTITLE12=Voices Of Theory - Say It (Vocal)
TTITLE13=Sisqo - Incomplete (Vocal)
TTITLE14=K-Ci and JoJo - Crazy (Vocal)
TTITLE15=K-Ci and JoJo - Tell Me It's Real (Vocal)
EXTD=
EXTT0=
EXTT1=
EXTT2=
EXTT3=
EXTT4=
EXTT5=
EXTT6=
EXTT7=
EXTT8=
EXTT9=
EXTT10=
EXTT11=
EXTT12=
EXTT13=
EXTT14=
EXTT15=
PLAYORDER=
